HIERARCHY
ROOT Hips
{
	OFFSET -14.64140 90.27770 -84.91600
	CHANNELS 6 Xposition Yposition Zposition Zrotation Xrotation Yrotation
	JOINT Spine
	{
		OFFSET 0.00000 13.20850 -1.60436
		CHANNELS 3 Zrotation Xrotation Yrotation
		JOINT Spine1
		{
			OFFSET 0.00000 8.61716 0.00000
			CHANNELS 3 Zrotation Xrotation Yrotation
			JOINT Spine2
			{
				OFFSET 0.00000 8.61717 0.00000
				CHANNELS 3 Zrotation Xrotation Yrotation
				JOINT Spine3
				{
					OFFSET 0.00000 8.61717 0.00000
					CHANNELS 3 Zrotation Xrotation Yrotation
					JOINT Neck
					{
						OFFSET 0.00000 11.07920 1.10792
						CHANNELS 3 Zrotation Xrotation Yrotation
						JOINT Neck1
						{
							OFFSET 0.00000 7.08032 0.00000
							CHANNELS 3 Zrotation Xrotation Yrotation
							JOINT Head
							{
								OFFSET 0.00000 7.08031 0.00000
								CHANNELS 3 Zrotation Xrotation Yrotation
								End site
								{
									OFFSET 0.00000 0.00000 0.00000
								}
							}
						}
					}
					JOINT RightShoulder
					{
						OFFSET -0.01000 7.91373 5.19711
						CHANNELS 3 Zrotation Xrotation Yrotation
						JOINT RightArm
						{
							OFFSET -18.41580 0.00000 0.00000
							CHANNELS 3 Zrotation Xrotation Yrotation
							JOINT RightForeArm
							{
								OFFSET -29.11090 0.00000 0.00000
								CHANNELS 3 Zrotation Xrotation Yrotation
								JOINT RightHand
								{
									OFFSET -24.65040 0.00000 0.00000
									CHANNELS 3 Zrotation Xrotation Yrotation
									JOINT RightHandThumb1
									{
										OFFSET -5.35114 -0.85590 3.97906
										CHANNELS 3 Zrotation Xrotation Yrotation
										JOINT RightHandThumb2
										{
											OFFSET -4.52789 0.00000 0.00000
											CHANNELS 3 Zrotation Xrotation Yrotation
											JOINT RightHandThumb3
											{
												OFFSET -2.46976 0.00000 0.00000
												CHANNELS 3 Zrotation Xrotation Yrotation
												End site
												{
													OFFSET 0.00000 0.00000 0.00000
												}
											}
										}
									}
									JOINT RightHandIndex1
									{
										OFFSET -14.26970 0.00000 2.88139
										CHANNELS 3 Zrotation Xrotation Yrotation
										JOINT RightHandIndex2
										{
											OFFSET -5.48836 0.00000 0.00000
											CHANNELS 3 Zrotation Xrotation Yrotation
											JOINT RightHandIndex3
											{
												OFFSET -3.01859 0.00000 0.00000
												CHANNELS 3 Zrotation Xrotation Yrotation
												End site
												{
													OFFSET 0.00000 0.00000 0.00000
												}
											}
										}
									}
									JOINT RightHandMiddle1
									{
										OFFSET -14.26970 0.00000 -0.09147
										CHANNELS 3 Zrotation Xrotation Yrotation
										JOINT RightHandMiddle2
										{
											OFFSET -6.17441 0.00000 0.00000
											CHANNELS 3 Zrotation Xrotation Yrotation
											JOINT RightHandMiddle3
											{
												OFFSET -3.56743 0.00000 0.00000
												CHANNELS 3 Zrotation Xrotation Yrotation
												End site
												{
													OFFSET 0.00000 0.00000 0.00000
												}
											}
										}
									}
									JOINT RightHandRing1
									{
										OFFSET -12.69180 0.00000 -3.06433
										CHANNELS 3 Zrotation Xrotation Yrotation
										JOINT RightHandRing2
										{
											OFFSET -5.62556 0.00000 0.00000
											CHANNELS 3 Zrotation Xrotation Yrotation
											JOINT RightHandRing3
											{
												OFFSET -3.56744 0.00000 0.00000
												CHANNELS 3 Zrotation Xrotation Yrotation
												End site
												{
													OFFSET 0.00000 0.00000 0.00000
												}
											}
										}
									}
									JOINT RightHandPinky1
									{
										OFFSET -11.11390 0.00000 -6.03719
										CHANNELS 3 Zrotation Xrotation Yrotation
										JOINT RightHandPinky2
										{
											OFFSET -4.52789 0.00000 0.00000
											CHANNELS 3 Zrotation Xrotation Yrotation
											JOINT RightHandPinky3
											{
												OFFSET -2.46976 0.00000 0.00000
												CHANNELS 3 Zrotation Xrotation Yrotation
												End site
												{
													OFFSET 0.00000 0.00000 0.00000
												}
											}
										}
									}
								}
							}
						}
					}
					JOINT LeftShoulder
					{
						OFFSET 0.01000 7.91373 5.19711
						CHANNELS 3 Zrotation Xrotation Yrotation
						JOINT LeftArm
						{
							OFFSET 18.41580 0.00000 0.00000
							CHANNELS 3 Zrotation Xrotation Yrotation
							JOINT LeftForeArm
							{
								OFFSET 29.11090 0.00000 0.00000
								CHANNELS 3 Zrotation Xrotation Yrotation
								JOINT LeftHand
								{
									OFFSET 24.65040 0.00000 0.00000
									CHANNELS 3 Zrotation Xrotation Yrotation
									JOINT LeftHandThumb1
									{
										OFFSET 5.35114 -0.85590 3.97906
										CHANNELS 3 Zrotation Xrotation Yrotation
										JOINT LeftHandThumb2
										{
											OFFSET 4.52789 0.00000 0.00000
											CHANNELS 3 Zrotation Xrotation Yrotation
											JOINT LeftHandThumb3
											{
												OFFSET 2.46977 0.00000 0.00000
												CHANNELS 3 Zrotation Xrotation Yrotation
												End site
												{
													OFFSET 0.00000 0.00000 0.00000
												}
											}
										}
									}
									JOINT LeftHandIndex1
									{
										OFFSET 14.26970 0.00000 2.88139
										CHANNELS 3 Zrotation Xrotation Yrotation
										JOINT LeftHandIndex2
										{
											OFFSET 5.48836 0.00000 0.00000
											CHANNELS 3 Zrotation Xrotation Yrotation
											JOINT LeftHandIndex3
											{
												OFFSET 3.01859 0.00000 0.00000
												CHANNELS 3 Zrotation Xrotation Yrotation
												End site
												{
													OFFSET 0.00000 0.00000 0.00000
												}
											}
										}
									}
									JOINT LeftHandMiddle1
									{
										OFFSET 14.26970 0.00000 -0.09147
										CHANNELS 3 Zrotation Xrotation Yrotation
										JOINT LeftHandMiddle2
										{
											OFFSET 6.17440 0.00000 0.00000
											CHANNELS 3 Zrotation Xrotation Yrotation
											JOINT LeftHandMiddle3
											{
												OFFSET 3.56744 0.00000 0.00000
												CHANNELS 3 Zrotation Xrotation Yrotation
												End site
												{
													OFFSET 0.00000 0.00000 0.00000
												}
											}
										}
									}
									JOINT LeftHandRing1
									{
										OFFSET 12.69180 0.00000 -3.06433
										CHANNELS 3 Zrotation Xrotation Yrotation
										JOINT LeftHandRing2
										{
											OFFSET 5.62556 0.00000 0.00000
											CHANNELS 3 Zrotation Xrotation Yrotation
											JOINT LeftHandRing3
											{
												OFFSET 3.56744 0.00000 0.00000
												CHANNELS 3 Zrotation Xrotation Yrotation
												End site
												{
													OFFSET 0.00000 0.00000 0.00000
												}
											}
										}
									}
									JOINT LeftHandPinky1
									{
										OFFSET 11.11390 0.00000 -6.03719
										CHANNELS 3 Zrotation Xrotation Yrotation
										JOINT LeftHandPinky2
										{
											OFFSET 4.52789 0.00000 0.00000
											CHANNELS 3 Zrotation Xrotation Yrotation
											JOINT LeftHandPinky3
											{
												OFFSET 2.46976 0.00000 0.00000
												CHANNELS 3 Zrotation Xrotation Yrotation
												End site
												{
													OFFSET 0.00000 0.00000 0.00000
												}
											}
										}
									}
								}
							}
						}
					}
					JOINT pCube4
					{
						OFFSET 0.00000 10.91090 1.10792
						CHANNELS 3 Zrotation Xrotation Yrotation
						End site
						{
							OFFSET 0.00000 0.00000 0.00000
						}
					}
				}
			}
		}
	}
	JOINT RightUpLeg
	{
		OFFSET -9.98441 0.00000 0.00000
		CHANNELS 3 Zrotation Xrotation Yrotation
		JOINT RightLeg
		{
			OFFSET 0.00000 -42.11790 0.00000
			CHANNELS 3 Zrotation Xrotation Yrotation
			JOINT RightFoot
			{
				OFFSET 0.00000 -45.00020 -0.00001
				CHANNELS 3 Zrotation Xrotation Yrotation
				JOINT RightForeFoot
				{
					OFFSET 0.00000 -3.74820 0.00000
					CHANNELS 3 Zrotation Xrotation Yrotation
					JOINT RightToeBase
					{
						OFFSET 0.00000 0.06325 14.43120
						CHANNELS 3 Zrotation Xrotation Yrotation
						End site
						{
							OFFSET 0.00000 0.00000 0.00000
						}
					}
				}
			}
		}
	}
	JOINT LeftUpLeg
	{
		OFFSET 9.98441 0.00000 0.00000
		CHANNELS 3 Zrotation Xrotation Yrotation
		JOINT LeftLeg
		{
			OFFSET 0.00000 -42.11800 0.00000
			CHANNELS 3 Zrotation Xrotation Yrotation
			JOINT LeftFoot
			{
				OFFSET 0.00000 -45.00070 0.00000
				CHANNELS 3 Zrotation Xrotation Yrotation
				JOINT LeftForeFoot
				{
					OFFSET 0.00000 -3.74824 0.00000
					CHANNELS 3 Zrotation Xrotation Yrotation
					JOINT LeftToeBase
					{
						OFFSET 0.00000 0.06325 14.43110
						CHANNELS 3 Zrotation Xrotation Yrotation
						End site
						{
							OFFSET 0.00000 0.00000 0.00000
						}
					}
				}
			}
		}
	}
}
MOTION
Frames: 4
Frame Time: 0.050000
-0.0020507226575663976 -0.042765624833031035 0.03559947861604353 -0.0329158412783963 -0.015198935559568664 0.007860238919230439 -3.3310243083988804 1.4878387705467941 -0.745983527309286 -0.9685644823823049 3.5729664258118627 0.34904935853250213 -1.2473778283143562 -2.3799248037283305 -2.021708861412567 -1.2429894591621002 -0.07390206864966008 -0.8818251621638744 -0.8286855258513999 15.740990879972689 2.024394437321352 0.22378408970800928 1.124288602018647 4.349001081356003 -0.4648421415004713 -13.699979229090244 0.4172377359817418 -11.72934978329548 3.981810479070521 -11.339700490223825 66.28862741825964 -11.205674714373817 46.31039813991754 24.334204156929424 -2.8268272874942966 97.66387022766733 10.409900490305287 -0.3404459461904888 -0.39107049801527505 4.542054137728449 -0.11956505953451889 -1.5982885693354263 0.04803441892940819 -0.025712102430388337 -56.23197831634915 0.043218042808945555 0.017613870471154796 -56.25770658131465 -38.791035955772536 -0.03677449031034578 0.024836793684189607 -0.02240614195591094 -0.015548967505292558 0.011257791438360499 0.027379222305073978 -0.02808577275991548 0.019087886313180574 -36.730740144472335 0.03270303823202411 -0.04491323239745566 0.039717746930941246 0.010904852090029789 0.03754213130536816 0.0047185698015637335 -0.03183396665952005 0.020349200857303486 -19.718728808716698 -0.006722587428646862 -0.011558353279939888 -0.010486738847437326 0.02836510811344751 -0.029194709703479108 0.014942094552512903 0.010172500915391278 0.0036757642585344592 24.032193313309843 -0.04593763905207557 0.03982211725655714 28.84698916951102 -0.04523946288395891 -0.013389357235983435 28.830883341331152 -0.040427022665556867 0.02074505204333203 14.72123805455047 3.373723710408663 9.810387682696469 -62.83326523149729 5.295131960444589 -51.208691988907496 -53.560411821318716 0.822452719932414 -94.48996601615778 -5.9379536047532975 0.4716417630053594 -0.8820645863529953 -0.5026937869433383 0.07614229137485853 -8.100569148098344 -0.015513458894665709 0.01387734146283066 44.55518667907609 0.0023441081331201986 -0.03422507023001209 44.596691851313835 12.500989810876359 0.022674244076370646 0.043965920638908584 -0.028950236256789417 0.03005835701712995 0.007767923991286315 0.02397292490623338 0.01309766261770074 0.008967143521196229 11.091131830692776 0.0019515472974965234 0.0025762771770700297 -0.012700391798389509 0.03518546339906981 0.008755854337027911 0.03352400839273364 0.005246498273419788 0.040065585551537636 4.753119098964824 -0.010890009557968127 0.008182081908859341 -0.040782869868923856 -0.008226242128120372 -0.043339051280061804 -0.0027810367919055387 0.009671129861539184 -0.02018518577559231 -5.567442764199202 0.027110107450844505 0.04707184690250806 -6.731733641509319 -0.004805897774716605 0.02830677030849056 -6.7234623488169225 0.029196407342579146 0.03277524933905606 -0.03995743057319774 0.01902055847806564 0.00528521441536856 8.08459666210358 3.468675445297454 -19.19016438633336 -0.02064426551791379 10.382079803801435 0.003512754985939521 -5.598460437812741 -15.70325843604152 3.1542634668100016 0.011289453896510017 0.04842429552313839 0.029585995618625033 0.01936807099165233 4.712808903214718 -0.04406246734930371 12.469089733497102 -8.281764780018207 6.846411569210575 -0.013249004472109473 46.33734616083728 0.002930271956903284 -4.364323375016702 -14.70236421866372 -3.870447765737521 0.003178138505115552 -0.0021179361173575624 0.030016784118876105 -0.002084568458291325 -10.702892328237171 -0.004468113923923067 
0.010410128619013494 -0.029281320493371777 0.015369658699453751 0.046575427702744435 -0.04661307854901279 0.0014968364154913324 -3.3787750075302765 1.4588886828995047 -0.7176464154962273 -0.9881188122240452 3.511574595412699 0.3848686942649833 -1.261847216871523 -2.408015236051524 -2.1215846562710654 -1.3265419950200437 -0.06412061238568405 -0.9128575957309903 -0.8942275817190586 15.69409352682551 2.330800558137097 0.23840586516949938 1.2594215657126506 5.087903959290935 -0.6010580098224325 -13.403504334600601 0.4474937296061795 -11.71347502676561 3.955089464479877 -11.425269195503477 65.69845704230126 -10.746505330077358 45.14974967242095 20.986722965425074 -3.2316710575876826 97.88462946875165 10.178050230319522 -0.3203394179363632 -0.5195575513772435 4.543675559879895 -0.17160343400302663 -1.6143069362303275 0.02274272500065039 0.006144174435691111 -56.26624291759952 0.038901203923269824 -0.030784048681559706 -56.23589644412364 -38.79027433804769 -0.006892505698011894 0.00926767999331461 -0.036140352782847635 0.015457803365478535 -0.027458561100561142 -0.01673474957664897 0.041174153094767046 0.04381519090435784 -36.72314347969881 -0.008163794715158155 -0.018234352367960352 0.021118042314622335 0.00366928889056377 -0.024023436143567427 0.029409983442075422 0.007889123538209744 -0.03201187605808204 -19.80674912180352 0.008851113977967139 0.04758509494590119 -0.04466578754716193 -0.015602227247644969 -0.006025345904326996 -0.04754565166712752 -0.018083884097389175 0.015712314046931793 24.07411966305036 -0.016047047456807583 -0.03115684454448126 28.903050838640876 0.014452320151572998 0.011200841378817716 28.848203033221655 -0.014137950625567082 0.012461089603249778 14.736689670273403 3.331464986496255 9.7901223671376 -62.61514700503848 5.8047705586766565 -50.670355608351 -54.15578239292613 1.3762344006135152 -93.47419186531286 -6.090518780244657 0.05221241467463364 -0.46293357782430716 -0.4829044833986668 0.06058710593904122 -8.118424894764532 -0.005536244945681451 0.008027365472813486 44.51957245689879 -0.02006801633329547 -0.042914158088951895 44.597326215306516 12.43382159813516 -0.015487105483179225 0.02457866430139313 0.021480253135424645 -0.01624311194407442 -0.04889881027879989 -0.03490661506420503 -0.011784413234891936 -0.024357363165666085 11.107473697327206 0.008520798615622837 -0.027057644549844377 -0.021562850106831184 0.0071590405880224955 -0.0007241223148265925 0.017156352603379763 -0.01879176229997731 -0.011052346399308464 4.798993267628845 -0.024149266606119314 0.03142393304897713 -0.039771417532336366 0.02574643888293738 -0.026958198148865707 0.029405523428184893 -0.01622748366930884 0.007863636947730415 -5.583600475558412 -0.008529297377291694 0.026314964986769558 -6.723233559429818 0.03516480961544255 -0.0072652427769848 -6.739846431711614 -0.012343713908872981 0.012381677726919754 -0.02929971888005502 0.02962768993439074 0.010071856260717679 8.046634520071098 3.503540580436007 -19.213105939765995 -0.03350226980103798 10.351192218351214 -0.020492292650266756 -5.590408906672596 -15.698291116581588 3.1847676464710064 -0.0057087894240944416 0.002510804796238369 -0.03636027571574241 -0.033699289074070125 4.713299187523514 0.029943368844215324 12.475110378260148 -8.232701343097013 6.899276627465969 -0.015479032678786692 46.41939988581372 0.006671475460813255 -4.343622857105516 -14.728964243303452 -3.801526051220078 -0.011518040992319482 0.024305039702804423 -0.0009693147978617673 0.023934151806541334 -10.720078337760036 -0.023005762038745846 
-0.02520180291786113 0.027879130918414586 0.04560306150303795 0.0008344854650765279 0.0013010485719039647 0.04843027777580233 -3.511899718847468 1.2736286007458588 -0.7621473226857669 -1.0630243728065887 3.5952517999945806 0.3481910052164043 -1.3121202218685988 -2.442002500230389 -2.1845689007884976 -1.2744726222660367 -0.028069737953318324 -0.909107566615583 -0.9627369104861396 15.653383476048784 2.567078586880139 0.28378648700767367 1.4548996933025802 5.83203714686916 -0.6687901291490278 -13.203198003235524 0.517997000349836 -11.460838642370492 3.9415960423805823 -11.509172023798566 64.98603082125051 -9.68723339092155 43.2536875395814 17.448150798945065 -3.6440650545559987 98.14026230578087 9.961233301766722 -0.3641205345089027 -0.6791205471191304 4.559568292987789 -0.12880865855393275 -1.615024818576455 0.03201886059903883 -0.023909998613820673 -56.23415796991999 0.018078191956691192 -0.004910780486889085 -56.22190739832942 -38.732313844981626 0.04828416731055042 0.029202501289240006 -0.0048689076238762445 -0.04355015115331268 -0.020802182754214037 0.04393818808303603 -0.04655088094461702 -0.009118985419932666 -36.72717076073607 -0.03387571537993576 -0.032217768991325925 0.03436815522953594 -0.02332239505920018 0.006470961058347102 0.03572668517076561 0.037438709542033974 -0.039566438646748324 -19.80124080901852 0.047930061781253454 -0.03256409570063946 0.011214225425742281 0.03599286076019567 0.00593480984303673 0.011563373040165702 0.030611521259726413 -0.025659038374893157 24.0297043512444 -0.014308151544333778 7.699165126541548e-05 28.896054612739828 -0.022094112281776178 -0.010774639454301299 28.837669923007656 -0.0035503155915790354 -0.0431770895654794 14.63325147915602 3.314369349855572 9.905767210608493 -62.60575659860847 6.466525395687888 -49.66332976200141 -56.18500233095553 2.408882756819992 -92.38054657006836 -5.996572214740667 -0.3777561722932453 0.050111356362274734 -0.49247382723826133 0.08274757629557647 -8.10181823207537 3.855834078379987e-05 -0.018599204677420298 44.575958023379144 0.03938587314252456 -0.016121184130234233 44.61303972810275 12.468019386574229 -0.033979348776828885 0.03130222524261555 -0.037360977531156435 -0.040897580297345235 0.040441426166960066 0.00508442379948785 -0.031596146247214185 0.028323518308155635 11.110190775082886 0.005505254072761276 -0.01699566772734741 -0.010674565747426347 -0.04984198901568551 0.02044646332225958 -0.015039011822905127 0.03906777429086388 -0.03723638479869271 4.74035988398733 0.002312338786637145 0.003382345427862278 -0.0078727356010488 0.030236936410078064 -0.005762958212052664 -0.014912737621741223 -0.02035330547206503 0.010611043816884344 -5.627309659417904 -0.023903479439314465 0.03321824660474462 -6.683367046447364 0.017516669493266517 -0.010484640846204887 -6.756125489372944 0.049161427558894154 0.040815190007125704 -0.00047506291299559476 -0.022645711430583616 0.0030592439798858653 8.040673548894256 3.520040170549245 -19.265723812074352 0.01602869386590865 10.366252081617173 0.018214258556307254 -5.623505710083234 -15.68438400918963 3.19068436075848 0.011864273253376774 -0.043816847477553975 0.02888347373462244 -0.008239654363856132 4.708063110291012 -0.02453491763619972 12.485077279721462 -8.266289863904415 6.927942243271525 0.022572925926041217 46.3979714191543 0.03846799200415874 -4.3687122208273275 -14.76188503250134 -3.7993792481454833 -0.047274551689916136 0.034541623747498404 0.012721584409024602 0.018478442459801948 -10.764770492988255 -0.02399577691999144 
0.008056048666834894 -0.029189796047432312 -0.006805680608143971 0.0023450777545066435 0.032700263459231986 0.013219520532677909 -3.4960651891629384 1.1837685092664436 -0.673084822825564 -1.083809311287414 3.5021850881335093 0.4222348747284403 -1.2497312909647078 -2.3685707817155324 -2.287438288080381 -1.2881879417302076 0.041353138333871595 -0.9163966828761678 -1.0048818465174534 15.730231282735646 2.8108023502088004 0.2645438038083059 1.5113914370298036 6.33211645186585 -0.6904054698402082 -12.968953755708544 0.579302340184792 -11.36899396764386 3.873348790277837 -11.70057708288142 64.06420157868837 -9.161558198297211 41.365275186082954 14.375686978103984 -4.005810783858549 98.62188371275212 9.698276831970603 -0.4188904880493302 -0.7406836927941729 4.5464223314800725 -0.10534998798904277 -1.6050115829615468 -0.010536072779970587 0.011467153522531888 -56.27089994819928 0.00037789788223488343 -0.03444675826421362 -56.272315268399495 -38.81390021568477 0.030382244776695617 0.011145822446880498 0.036409451050320486 -0.043710652783621365 0.04856157254622516 0.02520694664994747 -0.024608326206458205 0.007810514071112668 -36.685054279786435 -0.03338070216241715 -0.04249056581733181 -0.030131271287617355 -0.04205543418256334 -0.031584636812910974 0.046509799927172885 0.00011695245822979592 -0.004210855025632888 -19.77704472878349 0.04454003522178496 -0.023775932395394852 0.014583669781824139 0.027727928734953406 -0.011758267348265248 0.010201315055400655 0.014113891843826009 -0.004293793813906662 24.070306361056776 0.04233828092520736 -0.028778941720067543 28.8565097984083 0.030483847510724856 -0.021551557722865575 28.86238650385033 -0.04187611243496143 -0.017258278251784706 14.508184370356942 3.2299828409251483 10.058879303849709 -62.42765291875007 7.100450819512847 -48.45801367946577 -58.55363770777612 3.6712717686402763 -91.75445846699847 -5.622065587656603 -0.5839595110458604 0.4124669227821173 -0.49155528610876636 0.10242275952154836 -8.121405770683786 0.013103447210467762 0.010036077533275886 44.57248604043701 -0.0066265744456757685 0.03855616919598391 44.51982657940698 12.424760511769874 0.043674461350507635 0.004989898943234624 0.026366995772304225 -0.028435762407844893 0.0312802324288877 0.014217503298846627 -0.03321361917652204 0.04973011436710157 11.072079503459518 0.007973223811359119 -0.03510093883977988 0.012383927733195977 0.03989044150687064 -0.005784423188636613 -0.04163387050708018 0.026114218813480163 0.0008333019705139598 4.743373945443451 0.02850877091885902 -0.01454856555714566 0.028842766821121028 -0.023871664738685378 0.044030532402829656 -0.025274506008295557 -0.04478423724226005 -0.007068559712371742 -5.627993567769567 0.04486976519109555 0.0445696674883808 -6.707497362025341 -0.03005127513597105 -0.024116889916403164 -6.734172577991193 -0.008176321011876084 -0.0028958831236154197 0.04184186596632238 0.04267543040648472 0.013113516446257838 8.031095768398874 3.464090399865163 -19.266561757909287 0.04078392744728872 10.399338272972104 -0.029241402901294556 -5.669838534511387 -15.651480548331149 3.2163769312409682 -0.012774183289901184 0.02368302997905353 -0.011515938866329619 0.028650418869287517 4.670612849455888 0.0011205892693148779 12.503370801522566 -8.223112279001962 6.911164515000168 0.010674533387280583 46.40676428957041 0.005107825270659587 -4.3585524874482235 -14.74749862547348 -3.8176269907621894 0.01293850985619724 -0.028276971994063777 0.019545634713990175 0.032098347107569494 -10.751459541384099 -2.8392700359330594e-05 
